<svg width="428" height="41" viewBox="0 0 428 41" fill="none" xmlns="http://www.w3.org/2000/svg">
<path d="M0.615234 30.6465C0.615234 30.2715 0.667969 29.8965 0.773438 29.5215C0.878906 29.1348 1.07227 28.748 1.35352 28.3613C1.55273 28.0215 1.82227 27.5059 2.16211 26.8145C2.51367 26.123 2.90625 25.3086 3.33984 24.3711C3.77344 23.4336 4.23633 22.4141 4.72852 21.3125C5.23242 20.1992 5.74219 19.0684 6.25781 17.9199C6.77344 16.7598 7.2832 15.6055 7.78711 14.457C8.30273 13.2969 8.78906 12.2129 9.24609 11.2051C9.70312 10.1855 10.1191 9.26563 10.4941 8.44531C10.8691 7.625 11.1855 6.96289 11.4434 6.45898C11.4785 6.20117 11.5488 5.94922 11.6543 5.70312C11.7598 5.44531 11.9004 5.2168 12.0762 5.01758C12.252 4.80664 12.4629 4.64258 12.709 4.52539C12.9551 4.39648 13.2422 4.33203 13.5703 4.33203C13.9922 4.33203 14.332 4.39062 14.5898 4.50781C14.8594 4.625 15.0762 4.78906 15.2402 5C15.416 5.19922 15.5566 5.43359 15.6621 5.70312C15.7676 5.97266 15.873 6.25977 15.9785 6.56445C16.0723 6.83398 16.1602 7.0918 16.2422 7.33789C16.3242 7.57227 16.4004 7.75391 16.4707 7.88281C17.2559 9.45312 18.0176 11.0352 18.7559 12.6289C19.5059 14.2227 20.2441 15.8457 20.9707 17.498C21.709 19.1387 22.4531 20.8027 23.2031 22.4902C23.9531 24.1777 24.7324 25.8945 25.541 27.6406L25.875 28.1328C25.9688 28.2617 26.0801 28.4199 26.209 28.6074C26.3379 28.7832 26.4551 28.9766 26.5605 29.1875C26.6777 29.3984 26.7715 29.6211 26.8418 29.8555C26.9238 30.0898 26.9648 30.3242 26.9648 30.5586C26.9648 31.2617 26.7656 31.7598 26.3672 32.0527C25.9688 32.3574 25.4824 32.5098 24.9082 32.5098C24.5918 32.5098 24.2988 32.457 24.0293 32.3516C23.7715 32.2578 23.543 32.1289 23.3438 31.9648C23.1445 31.7891 22.9863 31.5898 22.8691 31.3672C22.752 31.1328 22.6758 30.8867 22.6406 30.6289C22.3125 29.9141 22.0078 29.2461 21.7266 28.625C21.4453 27.9922 21.1699 27.3828 20.9004 26.7969C20.6426 26.2109 20.3906 25.6426 20.1445 25.0918C19.8984 24.5293 19.6523 23.9668 19.4062 23.4043C19.2188 23.4043 18.9551 23.4043 18.6152 23.4043C18.2754 23.3926 17.8945 23.375 17.4727 23.3516C16.8047 23.3516 16.125 23.3457 15.4336 23.334C14.7539 23.3223 14.0566 23.3164 13.3418 23.3164C12.627 23.3047 11.8887 23.3047 11.127 23.3164C10.3652 23.3164 9.56836 23.334 8.73633 23.3691C8.60742 23.3809 8.48438 23.3926 8.36719 23.4043C8.25 23.4043 8.12695 23.4043 7.99805 23.4043C7.66992 24.2012 7.35938 24.9629 7.06641 25.6895C6.77344 26.4043 6.50977 27.0664 6.27539 27.6758C6.04102 28.2852 5.83008 28.8301 5.64258 29.3105C5.4668 29.7793 5.33203 30.1602 5.23828 30.4531V30.4355C5.16797 30.6934 5.08594 30.9453 4.99219 31.1914C4.91016 31.4375 4.78711 31.6602 4.62305 31.8594C4.45898 32.0469 4.23047 32.1992 3.9375 32.3164C3.65625 32.4453 3.28125 32.5098 2.8125 32.5098C2.17969 32.5098 1.65234 32.3516 1.23047 32.0352C0.820312 31.7188 0.615234 31.2559 0.615234 30.6465ZM9.59766 19.5723C9.84375 19.5723 10.1602 19.5723 10.5469 19.5723C10.9453 19.5723 11.4551 19.5781 12.0762 19.5898C12.709 19.5898 13.4824 19.5957 14.3965 19.6074C15.3105 19.6074 16.418 19.6133 17.7188 19.625C17.1797 18.4531 16.5703 17.1348 15.8906 15.6699C15.2109 14.1934 14.4082 12.4766 13.4824 10.5195C13.2129 11.1172 12.9258 11.7734 12.6211 12.4883C12.3164 13.2031 11.9941 13.9473 11.6543 14.7207C11.3262 15.4941 10.9863 16.291 10.6348 17.1113C10.2949 17.9316 9.94922 18.752 9.59766 19.5723ZM43.8047 25.6895C43.8633 24.7402 44.0566 24.0195 44.3848 23.5273C44.7246 23.0234 45.3164 22.7715 46.1602 22.7715C46.6875 22.7715 47.1387 22.9238 47.5137 23.2285C47.8887 23.5215 48.0762 23.9316 48.0762 24.459C48.0762 24.7637 48.0469 25.0684 47.9883 25.373C47.9297 25.6777 47.9121 25.9941 47.9355 26.3223C47.9824 26.7207 48.1582 27.084 48.4629 27.4121C48.7676 27.7402 49.1543 28.0273 49.623 28.2734C50.0918 28.5078 50.625 28.6953 51.2227 28.8359C51.8203 28.9648 52.4297 29.0293 53.0508 29.0293C53.6836 29.0293 54.3105 28.9766 54.9316 28.8711C55.5645 28.7539 56.1328 28.543 56.6367 28.2383C57.1523 27.9336 57.5684 27.5176 57.8848 26.9902C58.2012 26.4629 58.3594 25.7773 58.3594 24.9336C58.3594 24.3828 58.2246 23.8672 57.9551 23.3867C57.6855 22.8945 57.3398 22.4492 56.918 22.0508C56.4961 21.6406 56.0273 21.2715 55.5117 20.9434C55.0078 20.6152 54.5215 20.3281 54.0527 20.082C53.3848 19.7422 52.6992 19.4141 51.9961 19.0977C51.3047 18.7695 50.625 18.4297 49.957 18.0781C49.3008 17.7148 48.6738 17.3223 48.0762 16.9004C47.4902 16.4668 46.9746 15.9629 46.5293 15.3887C46.084 14.8145 45.7324 14.1523 45.4746 13.4023C45.2168 12.6406 45.0879 11.7617 45.0879 10.7656C45.0879 9.65234 45.3223 8.69141 45.791 7.88281C46.2715 7.07422 46.8984 6.40625 47.6719 5.87891C48.4453 5.35156 49.3301 4.96484 50.3262 4.71875C51.334 4.46094 52.3652 4.33203 53.4199 4.33203C54.3574 4.33203 55.2656 4.41406 56.1445 4.57812C57.0234 4.74219 57.8086 5.01172 58.5 5.38672C59.1914 5.75 59.7656 6.24219 60.2227 6.86328C60.6797 7.47266 60.9551 8.22266 61.0488 9.11328C61.0723 9.44141 61.0312 9.73437 60.9258 9.99219C60.8203 10.2383 60.6738 10.4492 60.4863 10.625C60.2988 10.7891 60.082 10.918 59.8359 11.0117C59.6016 11.0938 59.3613 11.1348 59.1152 11.1348C58.7402 11.1348 58.4238 11.0762 58.166 10.959C57.9082 10.8418 57.6973 10.6953 57.5332 10.5195C57.3691 10.3438 57.2461 10.1445 57.1641 9.92188C57.082 9.69922 57.0293 9.48242 57.0059 9.27148C56.8301 8.99023 56.6016 8.76172 56.3203 8.58594C56.0391 8.39844 55.7227 8.25195 55.3711 8.14648C55.0312 8.0293 54.6738 7.95312 54.2988 7.91797C53.9238 7.87109 53.5605 7.84766 53.209 7.84766C52.7168 7.84766 52.2246 7.90039 51.7324 8.00586C51.252 8.11133 50.8125 8.28125 50.4141 8.51562C50.0156 8.75 49.6934 9.04883 49.4473 9.41211C49.2012 9.77539 49.0781 10.2207 49.0781 10.748C49.0781 11.3691 49.2246 11.9199 49.5176 12.4004C49.8105 12.8809 50.1797 13.3086 50.625 13.6836C51.0703 14.0586 51.5625 14.3984 52.1016 14.7031C52.6523 15.0078 53.1855 15.2891 53.7012 15.5469C54.3223 15.8633 54.9668 16.2031 55.6348 16.5664C56.3027 16.918 56.9531 17.3047 57.5859 17.7266C58.2305 18.1367 58.8398 18.5879 59.4141 19.0801C59.9883 19.5723 60.4922 20.123 60.9258 20.7324C61.3594 21.3301 61.6992 21.9863 61.9453 22.7012C62.2031 23.416 62.332 24.207 62.332 25.0742C62.332 26 62.2031 26.8262 61.9453 27.5527C61.6875 28.2793 61.3359 28.918 60.8906 29.4688C60.4453 30.0195 59.9238 30.4883 59.3262 30.875C58.7285 31.2617 58.084 31.5781 57.3926 31.8242C56.7012 32.0703 55.9805 32.2461 55.2305 32.3516C54.4922 32.4688 53.7539 32.5273 53.0156 32.5273C52.3945 32.5273 51.7266 32.4746 51.0117 32.3691C50.3086 32.2637 49.6113 32.0996 48.9199 31.877C48.2285 31.6426 47.5664 31.3496 46.9336 30.998C46.3125 30.6348 45.7617 30.2012 45.2812 29.6973C44.8125 29.1816 44.4434 28.5957 44.1738 27.9395C43.9043 27.2715 43.7812 26.5215 43.8047 25.6895ZM66.8145 21.4004C66.8145 19.877 67.0957 18.4473 67.6582 17.1113C68.2324 15.7637 69.0117 14.5918 69.9961 13.5957C70.9922 12.5879 72.1523 11.7969 73.4766 11.2227C74.8008 10.6367 76.2188 10.3438 77.7305 10.3438C79.3828 10.3438 80.877 10.6367 82.2129 11.2227C83.5605 11.7969 84.709 12.5879 85.6582 13.5957C86.6191 14.5918 87.3574 15.7637 87.873 17.1113C88.3887 18.4473 88.6465 19.877 88.6465 21.4004C88.6465 22.5137 88.5117 23.5625 88.2422 24.5469C87.9844 25.5312 87.6152 26.4336 87.1348 27.2539C86.6543 28.0742 86.0742 28.8125 85.3945 29.4688C84.7266 30.1133 83.9883 30.6641 83.1797 31.1211C82.3711 31.5664 81.5039 31.9062 80.5781 32.1406C79.6641 32.3867 78.7148 32.5098 77.7305 32.5098C76.2539 32.5098 74.8535 32.2461 73.5293 31.7188C72.2051 31.1797 71.0449 30.4297 70.0488 29.4688C69.0527 28.4961 68.2617 27.3301 67.6758 25.9707C67.1016 24.5996 66.8145 23.0762 66.8145 21.4004ZM70.875 21.4004C70.875 22.5137 71.0332 23.5215 71.3496 24.4238C71.666 25.3262 72.1172 26.0996 72.7031 26.7441C73.3008 27.377 74.0215 27.8691 74.8652 28.2207C75.709 28.5605 76.6582 28.7305 77.7129 28.7305C78.6504 28.7305 79.5352 28.5723 80.3672 28.2559C81.1992 27.9395 81.9258 27.4766 82.5469 26.8672C83.1797 26.2461 83.6777 25.4785 84.041 24.5645C84.416 23.6504 84.6035 22.5957 84.6035 21.4004C84.6035 20.416 84.4453 19.4844 84.1289 18.6055C83.8242 17.7148 83.3789 16.9414 82.793 16.2852C82.207 15.6289 81.4863 15.1074 80.6309 14.7207C79.7754 14.334 78.8027 14.1406 77.7129 14.1406C76.623 14.1406 75.6562 14.334 74.8125 14.7207C73.9688 15.1074 73.2539 15.6289 72.668 16.2852C72.082 16.9414 71.6367 17.7148 71.332 18.6055C71.0273 19.4844 70.875 20.416 70.875 21.4004ZM97.998 33.2656C98.0098 33.793 98.0156 34.3496 98.0156 34.9355C98.0273 35.5215 98.0332 36.0957 98.0332 36.6582C98.0449 37.2207 98.0508 37.7422 98.0508 38.2227C98.0625 38.7148 98.0684 39.125 98.0684 39.4531C98.0684 39.7578 98.0039 40.0098 97.875 40.209C97.7578 40.4082 97.5996 40.5664 97.4004 40.6836C97.2129 40.8008 97.002 40.877 96.7676 40.9121C96.5332 40.959 96.3047 40.9824 96.082 40.9824C95.8359 40.9824 95.6016 40.959 95.3789 40.9121C95.168 40.877 94.9805 40.8008 94.8164 40.6836C94.6641 40.5781 94.541 40.4258 94.4473 40.2266C94.3535 40.0273 94.3066 39.7754 94.3066 39.4707V22.332C94.3066 21.5938 94.3066 20.791 94.3066 19.9238C94.3066 19.0449 94.3008 18.2012 94.2891 17.3926C94.2891 16.584 94.2773 15.8691 94.2539 15.248C94.2422 14.6152 94.2246 14.1816 94.2012 13.9473C94.1074 13.9473 93.9492 13.9707 93.7266 14.0176C93.5156 14.0527 93.3105 14.0703 93.1113 14.0703C92.9004 14.0703 92.6836 14.041 92.4609 13.9824C92.25 13.9238 92.0566 13.8242 91.8809 13.6836C91.7051 13.543 91.5586 13.3555 91.4414 13.1211C91.3242 12.8867 91.2656 12.5879 91.2656 12.2246C91.2656 11.8496 91.3066 11.5449 91.3887 11.3105C91.4824 11.0762 91.6113 10.8945 91.7754 10.7656C91.9395 10.625 92.1387 10.5313 92.373 10.4844C92.6074 10.4375 92.877 10.4141 93.1816 10.4141C93.4395 10.4141 93.6973 10.4316 93.9551 10.4668C94.2129 10.502 94.4824 10.5195 94.7637 10.5195C95.0098 10.5195 95.2617 10.502 95.5195 10.4668C95.7773 10.4316 96.0645 10.4141 96.3809 10.4141C96.8965 10.4141 97.3066 10.543 97.6113 10.8008C97.916 11.0469 98.0684 11.4395 98.0684 11.9785C98.0684 12.2129 98.0449 12.4531 97.998 12.6992C97.9629 12.9453 97.9336 13.1973 97.9102 13.4551C98.2734 12.998 98.6953 12.582 99.1758 12.207C99.668 11.8203 100.207 11.4922 100.793 11.2227C101.379 10.9414 102.006 10.7246 102.674 10.5723C103.354 10.4199 104.057 10.3438 104.783 10.3438C106.295 10.3438 107.678 10.5957 108.932 11.0996C110.186 11.5918 111.258 12.3066 112.148 13.2441C113.051 14.1816 113.748 15.3242 114.24 16.6719C114.744 18.0195 114.996 19.5371 114.996 21.2246C114.996 22.8066 114.762 24.2891 114.293 25.6719C113.836 27.043 113.162 28.2383 112.271 29.2578C111.381 30.2656 110.279 31.0625 108.967 31.6484C107.666 32.2227 106.178 32.5098 104.502 32.5098C103.213 32.5098 101.988 32.2812 100.828 31.8242C99.6797 31.3555 98.7129 30.7051 97.9277 29.873L97.998 33.2656ZM97.8926 22.7715C98.0332 23.627 98.2852 24.418 98.6484 25.1445C99.0117 25.8711 99.457 26.5039 99.9844 27.043C100.512 27.5703 101.104 27.9863 101.76 28.291C102.428 28.584 103.131 28.7305 103.869 28.7305C105.053 28.7305 106.078 28.5605 106.945 28.2207C107.824 27.8809 108.545 27.3887 109.107 26.7441C109.682 26.0996 110.109 25.3203 110.391 24.4062C110.672 23.4805 110.812 22.4375 110.812 21.2773C110.812 20.293 110.672 19.3672 110.391 18.5C110.109 17.6328 109.699 16.877 109.16 16.2324C108.621 15.5879 107.959 15.0781 107.174 14.7031C106.389 14.3281 105.498 14.1406 104.502 14.1406C103.693 14.1406 102.914 14.334 102.164 14.7207C101.414 15.0957 100.74 15.6055 100.143 16.25C99.5566 16.8945 99.0645 17.6445 98.666 18.5C98.2676 19.3438 98.0098 20.2344 97.8926 21.1719V22.7715ZM119.004 21.4531C119.004 19.8594 119.273 18.377 119.812 17.0059C120.352 15.6348 121.09 14.4453 122.027 13.4375C122.977 12.4297 124.084 11.6387 125.35 11.0645C126.627 10.4902 128.004 10.2031 129.48 10.2031C130.23 10.2031 130.945 10.291 131.625 10.4668C132.316 10.6426 132.955 10.877 133.541 11.1699C134.139 11.4512 134.672 11.7734 135.141 12.1367C135.621 12.5 136.031 12.875 136.371 13.2617C136.359 13.0977 136.354 12.9219 136.354 12.7344C136.354 12.5469 136.354 12.3828 136.354 12.2422C136.354 11.9492 136.395 11.6797 136.477 11.4336C136.559 11.1758 136.688 10.9531 136.863 10.7656C137.039 10.5781 137.262 10.4316 137.531 10.3262C137.801 10.209 138.129 10.1504 138.516 10.1504C138.844 10.1504 139.137 10.2148 139.395 10.3438C139.664 10.4609 139.893 10.6133 140.08 10.8008C140.268 10.9766 140.414 11.1699 140.52 11.3809C140.625 11.5801 140.678 11.7617 140.678 11.9258C140.678 12.3242 140.654 12.7285 140.607 13.1387C140.572 13.5371 140.543 13.9414 140.52 14.3516C140.52 15.6406 140.508 16.7832 140.484 17.7793C140.473 18.7637 140.455 19.6719 140.432 20.5039C140.408 21.0664 140.391 21.6523 140.379 22.2617C140.367 22.8594 140.361 23.4102 140.361 23.9141C140.361 25.0508 140.361 25.9531 140.361 26.6211C140.361 27.2891 140.391 27.7754 140.449 28.0801C140.555 28.0566 140.707 28.0039 140.906 27.9219C141.117 27.8398 141.311 27.752 141.486 27.6582C141.65 27.5996 141.814 27.541 141.979 27.4824C142.143 27.4238 142.348 27.3945 142.594 27.3945C142.875 27.3945 143.121 27.459 143.332 27.5879C143.543 27.7051 143.719 27.8633 143.859 28.0625C144.012 28.25 144.123 28.4668 144.193 28.7129C144.264 28.9473 144.299 29.1758 144.299 29.3984C144.299 29.7148 144.223 30.0371 144.07 30.3652C143.918 30.6816 143.637 30.9102 143.227 31.0508C142.875 31.1797 142.518 31.3145 142.154 31.4551C141.791 31.5957 141.422 31.7246 141.047 31.8418C140.684 31.959 140.314 32.0586 139.939 32.1406C139.576 32.2227 139.201 32.2637 138.814 32.2637C138.357 32.2637 137.982 32.1699 137.689 31.9824C137.396 31.7949 137.168 31.5547 137.004 31.2617C136.84 30.957 136.723 30.623 136.652 30.2598C136.582 29.8965 136.541 29.5391 136.529 29.1875C136.166 29.6445 135.727 30.0723 135.211 30.4707C134.695 30.8691 134.127 31.2207 133.506 31.5254C132.885 31.8301 132.217 32.0703 131.502 32.2461C130.799 32.4219 130.072 32.5098 129.322 32.5098C127.799 32.5098 126.404 32.2344 125.139 31.6836C123.873 31.1211 122.783 30.3477 121.869 29.3633C120.967 28.3672 120.264 27.1953 119.76 25.8477C119.256 24.5 119.004 23.0352 119.004 21.4531ZM123.047 21.4531C123.047 22.4023 123.188 23.3164 123.469 24.1953C123.762 25.0742 124.178 25.8535 124.717 26.5332C125.268 27.2012 125.941 27.7344 126.738 28.1328C127.535 28.5312 128.438 28.7305 129.445 28.7305C130.441 28.7305 131.344 28.5371 132.152 28.1504C132.961 27.7637 133.664 27.2598 134.262 26.6387C134.871 26.0176 135.369 25.3262 135.756 24.5645C136.143 23.791 136.406 23.0176 136.547 22.2441V20.6973C136.418 19.9824 136.172 19.2266 135.809 18.4297C135.457 17.6328 134.988 16.9004 134.402 16.2324C133.828 15.5527 133.137 14.9961 132.328 14.5625C131.52 14.1172 130.605 13.8945 129.586 13.8945C128.625 13.8945 127.746 14.0938 126.949 14.4922C126.152 14.8789 125.461 15.418 124.875 16.1094C124.301 16.7891 123.85 17.5859 123.521 18.5C123.205 19.4141 123.047 20.3984 123.047 21.4531ZM162.58 29.9434C162.58 29.4043 162.604 28.877 162.65 28.3613C162.697 27.8457 162.721 27.2422 162.721 26.5508C162.721 23.4336 162.709 20.3105 162.686 17.1816C162.674 14.0527 162.621 10.8887 162.527 7.68945C162.398 7.44336 162.281 7.17383 162.176 6.88086C162.082 6.58789 162.035 6.33594 162.035 6.125C162.035 5.62109 162.17 5.19922 162.439 4.85938C162.721 4.50781 163.195 4.33203 163.863 4.33203C164.203 4.33203 164.537 4.37891 164.865 4.47266C165.193 4.55469 165.545 4.5957 165.92 4.5957C166.74 4.5957 167.555 4.55469 168.363 4.47266C169.172 4.37891 169.998 4.33203 170.842 4.33203C172.564 4.33203 174.105 4.50195 175.465 4.8418C176.836 5.16992 178.037 5.63281 179.068 6.23047C180.1 6.81641 180.979 7.51953 181.705 8.33984C182.432 9.14844 183.018 10.0391 183.463 11.0117C183.92 11.9727 184.254 12.998 184.465 14.0879C184.676 15.166 184.781 16.2617 184.781 17.375C184.781 18.3711 184.676 19.4375 184.465 20.5742C184.266 21.6992 183.932 22.8184 183.463 23.9316C182.994 25.0332 182.385 26.0938 181.635 27.1133C180.885 28.1211 179.959 29.0117 178.857 29.7852C177.756 30.5586 176.467 31.1797 174.99 31.6484C173.525 32.1055 171.844 32.334 169.945 32.334C169.5 32.334 169.055 32.3105 168.609 32.2637C168.176 32.2285 167.736 32.1816 167.291 32.123C166.846 32.0762 166.395 32.0352 165.938 32C165.492 31.9531 165.035 31.9297 164.566 31.9297C163.852 31.9297 163.342 31.7656 163.037 31.4375C162.732 31.1094 162.58 30.6113 162.58 29.9434ZM166.5 28.1328C166.746 28.2031 167.039 28.2617 167.379 28.3086C167.73 28.3438 168.082 28.373 168.434 28.3965C168.785 28.4199 169.113 28.4375 169.418 28.4492C169.734 28.4492 169.98 28.4492 170.156 28.4492C171.609 28.4492 172.881 28.2676 173.971 27.9043C175.061 27.541 175.992 27.0664 176.766 26.4805C177.551 25.8945 178.201 25.2324 178.717 24.4941C179.232 23.7559 179.637 23.0117 179.93 22.2617C180.234 21.5117 180.445 20.791 180.562 20.0996C180.68 19.4082 180.738 18.8164 180.738 18.3242C180.738 16.3789 180.504 14.7617 180.035 13.4727C179.578 12.1719 178.898 11.1348 177.996 10.3613C177.105 9.58789 176.004 9.04297 174.691 8.72656C173.391 8.41016 171.891 8.25195 170.191 8.25195C169.969 8.25195 169.693 8.25781 169.365 8.26953C169.049 8.28125 168.715 8.29297 168.363 8.30469C168.012 8.31641 167.66 8.33398 167.309 8.35742C166.969 8.38086 166.664 8.39844 166.395 8.41016L166.5 28.1328ZM195.715 7.77734C195.434 7.90625 195.141 7.9707 194.836 7.9707C194.531 7.95898 194.25 7.89453 193.992 7.77734C193.746 7.64844 193.529 7.4668 193.342 7.23242C193.154 6.99805 193.037 6.7168 192.99 6.38867C192.955 6.16602 192.961 5.91406 193.008 5.63281C193.066 5.33984 193.137 5.04688 193.219 4.75391C193.312 4.44922 193.395 4.15625 193.465 3.875C193.547 3.58203 193.6 3.31836 193.623 3.08398C193.658 2.55664 193.816 2.11719 194.098 1.76562C194.379 1.41406 194.801 1.19727 195.363 1.11523C195.773 1.04492 196.16 1.06836 196.523 1.18555C196.887 1.30273 197.156 1.56055 197.332 1.95898C197.391 2.08789 197.438 2.24023 197.473 2.41602C197.52 2.58008 197.555 2.72656 197.578 2.85547C197.59 2.97266 197.584 3.11914 197.561 3.29492C197.549 3.4707 197.52 3.6582 197.473 3.85742C197.426 4.04492 197.367 4.23828 197.297 4.4375C197.238 4.625 197.18 4.78906 197.121 4.92969C197.027 5.12891 196.963 5.3457 196.928 5.58008C196.904 5.80273 196.875 6.00781 196.84 6.19531C196.805 6.38281 196.77 6.55273 196.734 6.70508C196.699 6.85742 196.641 6.99805 196.559 7.12695C196.488 7.25586 196.383 7.37305 196.242 7.47852C196.113 7.58398 195.938 7.68359 195.715 7.77734ZM192.709 30.6816C192.709 30.3887 192.721 30.1426 192.744 29.9434C192.779 29.7441 192.809 29.5273 192.832 29.293C192.867 29.0469 192.896 28.7598 192.92 28.4316C192.955 28.1035 192.973 27.6582 192.973 27.0957C192.973 24.998 192.967 22.918 192.955 20.8555C192.943 18.7812 192.914 16.5898 192.867 14.2812C192.691 14.293 192.492 14.3047 192.27 14.3164C192.047 14.3281 191.812 14.3398 191.566 14.3516C191.332 14.3516 191.104 14.3574 190.881 14.3691C190.658 14.3691 190.459 14.3691 190.283 14.3691C190.072 14.3691 189.855 14.3398 189.633 14.2812C189.422 14.2109 189.229 14.0996 189.053 13.9473C188.877 13.7949 188.73 13.6016 188.613 13.3672C188.496 13.1211 188.438 12.8223 188.438 12.4707C188.438 11.8496 188.602 11.3809 188.93 11.0645C189.27 10.7363 189.668 10.5723 190.125 10.5723C190.57 10.5723 191.01 10.5957 191.443 10.6426C191.889 10.6777 192.322 10.6953 192.744 10.6953C193.178 10.6953 193.611 10.6777 194.045 10.6426C194.479 10.5957 194.889 10.5723 195.275 10.5723C195.873 10.5723 196.301 10.7305 196.559 11.0469C196.816 11.3633 196.945 11.8027 196.945 12.3652C196.945 12.8457 196.904 13.3203 196.822 13.7891C196.74 14.2461 196.699 14.7383 196.699 15.2656C196.699 16.3203 196.693 17.3809 196.682 18.4473C196.67 19.5137 196.658 20.5977 196.646 21.6992C196.646 22.8008 196.641 23.9258 196.629 25.0742C196.629 26.2227 196.641 27.4062 196.664 28.625C196.852 28.6133 197.021 28.584 197.174 28.5371C197.326 28.4902 197.473 28.4434 197.613 28.3965C197.754 28.3379 197.9 28.291 198.053 28.2559C198.217 28.209 198.398 28.1855 198.598 28.1855C198.902 28.1855 199.148 28.2207 199.336 28.291C199.535 28.3613 199.693 28.4609 199.811 28.5898C199.928 28.707 200.016 28.8594 200.074 29.0469C200.133 29.2227 200.186 29.416 200.232 29.627C200.314 30.1777 200.18 30.6172 199.828 30.9453C199.477 31.2734 198.996 31.5312 198.387 31.7188C198.035 31.8125 197.672 31.9062 197.297 32C196.934 32.0938 196.588 32.1758 196.26 32.2461C195.932 32.3281 195.633 32.3926 195.363 32.4395C195.094 32.4863 194.883 32.5098 194.73 32.5098C194.039 32.5098 193.529 32.3457 193.201 32.0176C192.873 31.7012 192.709 31.2559 192.709 30.6816ZM206.859 30.7168C206.859 30.1191 206.9 29.5332 206.982 28.959C207.076 28.3848 207.123 27.7754 207.123 27.1309C207.123 26.6504 207.117 26.1758 207.105 25.707C207.105 25.2383 207.1 24.7402 207.088 24.2129C207.088 23.6855 207.082 23.1113 207.07 22.4902C207.059 21.8574 207.041 21.1426 207.018 20.3457C207.006 19.5488 206.988 18.6465 206.965 17.6387C206.941 16.6309 206.918 15.4766 206.895 14.1758C206.742 14.1992 206.566 14.2227 206.367 14.2461C206.18 14.2578 205.939 14.2637 205.646 14.2637C205.436 14.2637 205.219 14.2285 204.996 14.1582C204.773 14.0879 204.574 13.9824 204.398 13.8418C204.223 13.6895 204.076 13.4961 203.959 13.2617C203.842 13.0156 203.783 12.7168 203.783 12.3652C203.783 11.7324 203.947 11.2578 204.275 10.9414C204.604 10.6133 205.002 10.4492 205.471 10.4492C205.658 10.4492 205.84 10.4727 206.016 10.5195C206.191 10.5664 206.379 10.5898 206.578 10.5898C207.047 10.5898 207.51 10.5664 207.967 10.5195C208.436 10.4727 208.928 10.4492 209.443 10.4492C209.947 10.4492 210.293 10.6074 210.48 10.9238C210.68 11.2402 210.779 11.6855 210.779 12.2598V12.6113C211.705 11.8379 212.684 11.2695 213.715 10.9062C214.746 10.5313 215.707 10.3438 216.598 10.3438C218.062 10.3438 219.363 10.5547 220.5 10.9766C221.637 11.3984 222.604 12.0254 223.4 12.8574C223.893 12.459 224.408 12.1016 224.947 11.7852C225.486 11.4688 226.025 11.2051 226.564 10.9941C227.115 10.7832 227.654 10.625 228.182 10.5195C228.709 10.4023 229.213 10.3438 229.693 10.3438C231.17 10.3438 232.512 10.5664 233.719 11.0117C234.926 11.4453 235.957 12.0898 236.812 12.9453C237.68 13.8008 238.348 14.8555 238.816 16.1094C239.285 17.3516 239.52 18.7871 239.52 20.416C239.52 20.9316 239.484 21.5176 239.414 22.1738C239.355 22.8184 239.268 23.4863 239.15 24.1777C239.033 24.8574 238.893 25.5312 238.729 26.1992C238.564 26.8555 238.389 27.4473 238.201 27.9746C238.354 27.9277 238.477 27.8984 238.57 27.8867C238.664 27.875 238.746 27.8691 238.816 27.8691C239.227 27.8691 239.555 27.9453 239.801 28.0977C240.047 28.25 240.234 28.4316 240.363 28.6426C240.504 28.8535 240.592 29.0762 240.627 29.3105C240.674 29.5332 240.697 29.7207 240.697 29.873C240.697 30.2363 240.633 30.5352 240.504 30.7695C240.375 30.9922 240.146 31.1855 239.818 31.3496C239.502 31.502 239.068 31.6426 238.518 31.7715C237.979 31.9004 237.293 32.0527 236.461 32.2285C236.098 32.3223 235.799 32.3984 235.564 32.457C235.342 32.5156 235.137 32.5449 234.949 32.5449C234.574 32.5449 234.252 32.4863 233.982 32.3691C233.713 32.2637 233.49 32.123 233.314 31.9473C233.15 31.7598 233.027 31.543 232.945 31.2969C232.863 31.0391 232.822 30.7695 232.822 30.4883C232.822 30.1836 232.904 29.8438 233.068 29.4688C233.232 29.082 233.449 28.7363 233.719 28.4316C233.988 27.9863 234.234 27.4473 234.457 26.8145C234.68 26.1699 234.867 25.4844 235.02 24.7578C235.184 24.0312 235.307 23.293 235.389 22.543C235.471 21.793 235.512 21.084 235.512 20.416C235.512 19.4785 235.395 18.623 235.16 17.8496C234.938 17.0762 234.58 16.4141 234.088 15.8633C233.607 15.3125 232.992 14.8848 232.242 14.5801C231.504 14.2754 230.625 14.123 229.605 14.123C229.09 14.123 228.627 14.1641 228.217 14.2461C227.818 14.3164 227.443 14.4219 227.092 14.5625C226.752 14.7031 226.43 14.8789 226.125 15.0898C225.82 15.3008 225.516 15.5469 225.211 15.8281C225.691 17.1406 225.932 18.6699 225.932 20.416C225.932 20.9434 225.896 21.541 225.826 22.209C225.756 22.877 225.656 23.5625 225.527 24.2656C225.398 24.9688 225.234 25.6602 225.035 26.3398C224.836 27.0195 224.613 27.6406 224.367 28.2031C224.555 28.168 224.748 28.1152 224.947 28.0449C225.146 27.9629 225.363 27.9219 225.598 27.9219C225.984 27.9219 226.295 27.998 226.529 28.1504C226.775 28.3027 226.957 28.4902 227.074 28.7129C227.203 28.9238 227.285 29.1582 227.32 29.416C227.367 29.6621 227.391 29.8848 227.391 30.084C227.391 30.459 227.314 30.7578 227.162 30.9805C227.021 31.1914 226.834 31.3613 226.6 31.4902C226.365 31.6074 226.096 31.6953 225.791 31.7539C225.486 31.8008 225.176 31.8418 224.859 31.877C224.543 31.9121 224.232 31.9531 223.928 32C223.635 32.0586 223.371 32.1465 223.137 32.2637C223.102 32.2871 223.02 32.3105 222.891 32.334C222.762 32.3691 222.621 32.3984 222.469 32.4219C222.328 32.457 222.182 32.4863 222.029 32.5098C221.889 32.5332 221.777 32.5449 221.695 32.5449C221.309 32.5449 220.98 32.4746 220.711 32.334C220.441 32.1934 220.219 32.0117 220.043 31.7891C219.879 31.5664 219.756 31.3203 219.674 31.0508C219.604 30.7812 219.568 30.5176 219.568 30.2598C219.568 29.9551 219.615 29.6504 219.709 29.3457C219.803 29.0293 219.932 28.7363 220.096 28.4668C220.354 27.998 220.594 27.4414 220.816 26.7969C221.039 26.1406 221.227 25.4551 221.379 24.7402C221.543 24.0137 221.672 23.2812 221.766 22.543C221.859 21.793 221.906 21.084 221.906 20.416C221.906 19.4785 221.812 18.623 221.625 17.8496C221.449 17.0762 221.15 16.4141 220.729 15.8633C220.307 15.3125 219.75 14.8848 219.059 14.5801C218.379 14.2754 217.535 14.123 216.527 14.123C215.531 14.123 214.553 14.3398 213.592 14.7734C212.643 15.1953 211.705 15.875 210.779 16.8125C210.779 17.3398 210.773 17.9961 210.762 18.7812C210.762 19.5547 210.762 20.375 210.762 21.2422C210.762 22.1094 210.762 22.9707 210.762 23.8262C210.762 24.6816 210.762 25.4492 210.762 26.1289C210.773 26.8086 210.779 27.3594 210.779 27.7812C210.791 28.1914 210.803 28.3789 210.814 28.3438C211.025 28.2852 211.195 28.2383 211.324 28.2031C211.465 28.1562 211.576 28.1211 211.658 28.0977C211.752 28.0742 211.822 28.0625 211.869 28.0625C211.916 28.0508 211.969 28.0449 212.027 28.0449C212.66 28.0449 213.141 28.2031 213.469 28.5195C213.797 28.8242 213.961 29.2754 213.961 29.873C213.961 30.3184 213.873 30.6699 213.697 30.9277C213.521 31.1855 213.299 31.3906 213.029 31.543C212.76 31.6953 212.455 31.8066 212.115 31.877C211.775 31.9355 211.447 31.9824 211.131 32.0176C210.932 32.041 210.727 32.082 210.516 32.1406C210.305 32.1992 210.094 32.2578 209.883 32.3164C209.672 32.375 209.461 32.4277 209.25 32.4746C209.039 32.5215 208.846 32.5449 208.67 32.5449C207.979 32.5449 207.504 32.3809 207.246 32.0527C206.988 31.7363 206.859 31.291 206.859 30.7168ZM249.486 24.0723C249.709 24.9512 250.037 25.6895 250.471 26.2871C250.916 26.873 251.414 27.3477 251.965 27.7109C252.516 28.0742 253.096 28.3379 253.705 28.502C254.326 28.6543 254.93 28.7305 255.516 28.7305C256.43 28.7305 257.244 28.6543 257.959 28.502C258.674 28.3379 259.283 28.1445 259.787 27.9219C260.303 27.6875 260.719 27.4473 261.035 27.2012C261.352 26.9551 261.574 26.7383 261.703 26.5508C261.82 26.375 261.949 26.2109 262.09 26.0586C262.242 25.8945 262.4 25.7539 262.564 25.6367C262.74 25.5078 262.91 25.4082 263.074 25.3379C263.25 25.2676 263.414 25.2324 263.566 25.2324C264.152 25.2324 264.604 25.4082 264.92 25.7598C265.248 26.0996 265.412 26.5625 265.412 27.1484C265.412 27.3711 265.33 27.6523 265.166 27.9922C265.002 28.332 264.697 28.707 264.252 29.1172C263.76 29.5742 263.209 30.0078 262.6 30.418C262.002 30.8281 261.34 31.1914 260.613 31.5078C259.887 31.8125 259.096 32.0527 258.24 32.2285C257.396 32.416 256.482 32.5098 255.498 32.5098C254.338 32.5098 253.277 32.3516 252.316 32.0352C251.355 31.7305 250.494 31.3145 249.732 30.7871C248.971 30.248 248.309 29.627 247.746 28.9238C247.184 28.2207 246.715 27.4707 246.34 26.6738C245.965 25.877 245.684 25.0566 245.496 24.2129C245.309 23.3691 245.215 22.5488 245.215 21.752C245.215 20.0176 245.496 18.4531 246.059 17.0586C246.621 15.6523 247.395 14.4512 248.379 13.4551C249.363 12.459 250.529 11.6914 251.877 11.1523C253.225 10.6133 254.684 10.3438 256.254 10.3438C257.379 10.3438 258.434 10.5137 259.418 10.8535C260.402 11.1816 261.275 11.6504 262.037 12.2598C262.811 12.8574 263.455 13.5781 263.971 14.4219C264.498 15.2539 264.867 16.1738 265.078 17.1816C265.312 17.3809 265.482 17.6445 265.588 17.9727C265.705 18.2891 265.764 18.6055 265.764 18.9219C265.764 19.4492 265.582 19.8828 265.219 20.2227C264.867 20.5508 264.422 20.7793 263.883 20.9082C262.699 21.2129 261.516 21.4941 260.332 21.752C259.148 22.0098 257.959 22.2617 256.764 22.5078C255.568 22.7539 254.361 23.0059 253.143 23.2637C251.936 23.5215 250.717 23.791 249.486 24.0723ZM249.188 20.8203C251.18 20.3516 253.195 19.9121 255.234 19.502C257.273 19.0918 259.348 18.6348 261.457 18.1309C261.258 17.5918 260.988 17.082 260.648 16.6016C260.309 16.1094 259.91 15.6816 259.453 15.3184C258.996 14.9551 258.486 14.668 257.924 14.457C257.373 14.2461 256.775 14.1406 256.131 14.1406C255.135 14.1406 254.227 14.3047 253.406 14.6328C252.598 14.9492 251.895 15.4004 251.297 15.9863C250.699 16.5605 250.219 17.2637 249.855 18.0957C249.492 18.916 249.27 19.8242 249.188 20.8203ZM272.83 30.6992C272.83 30.4883 272.836 30.2715 272.848 30.0488C272.871 29.8262 272.895 29.6094 272.918 29.3984C272.953 29.082 272.988 28.7363 273.023 28.3613C273.059 27.9863 273.076 27.5645 273.076 27.0957C273.076 26.1816 273.07 25.3203 273.059 24.5117C273.059 23.6914 273.047 22.8477 273.023 21.9805C273.023 21.957 273.023 21.9219 273.023 21.875C273.023 21.8164 273.018 21.7051 273.006 21.541C273.006 21.377 273 21.1367 272.988 20.8203C272.988 20.5039 272.982 20.0586 272.971 19.4844C272.959 18.9102 272.941 18.1953 272.918 17.3398C272.906 16.4727 272.889 15.418 272.865 14.1758C272.713 14.1992 272.531 14.2227 272.32 14.2461C272.121 14.2578 271.881 14.2637 271.6 14.2637C271.389 14.2637 271.172 14.2285 270.949 14.1582C270.738 14.0879 270.539 13.9824 270.352 13.8418C270.176 13.6895 270.029 13.4961 269.912 13.2617C269.807 13.0156 269.754 12.7168 269.754 12.3652C269.754 11.7324 269.912 11.2578 270.229 10.9414C270.557 10.6133 270.955 10.4492 271.424 10.4492C271.611 10.4492 271.793 10.4727 271.969 10.5195C272.145 10.5664 272.332 10.5898 272.531 10.5898C272.766 10.5898 273.006 10.584 273.252 10.5723C273.498 10.5605 273.738 10.543 273.973 10.5195C274.23 10.4961 274.482 10.4785 274.729 10.4668C274.986 10.4551 275.215 10.4492 275.414 10.4492C275.895 10.4492 276.293 10.6074 276.609 10.9238C276.926 11.2402 277.084 11.6855 277.084 12.2598C277.084 12.4004 277.078 12.5645 277.066 12.752C277.066 12.9395 277.055 13.1211 277.031 13.2969C277.43 12.9102 277.881 12.541 278.385 12.1895C278.889 11.8379 279.434 11.5273 280.02 11.2578C280.617 10.9766 281.256 10.7539 281.936 10.5898C282.615 10.4258 283.336 10.3438 284.098 10.3438C285.586 10.3438 286.887 10.5898 288 11.082C289.125 11.5625 290.062 12.2656 290.812 13.1914C291.574 14.1055 292.143 15.2305 292.518 16.5664C292.904 17.9023 293.098 19.4199 293.098 21.1191C293.098 21.6348 293.062 22.1738 292.992 22.7363C292.922 23.2988 292.822 23.8613 292.693 24.4238C292.576 24.9863 292.43 25.5488 292.254 26.1113C292.09 26.6621 291.902 27.1836 291.691 27.6758C291.961 27.5938 292.219 27.5234 292.465 27.4648C292.711 27.4062 292.916 27.3652 293.08 27.3418C294.393 27.2129 295.049 27.8105 295.049 29.1348C295.049 29.2988 295.031 29.4805 294.996 29.6797C294.961 29.8672 294.891 30.0547 294.785 30.2422C294.68 30.418 294.533 30.5879 294.346 30.752C294.158 30.9043 293.918 31.0332 293.625 31.1387L291.727 31.5781C291.141 31.7539 290.666 31.9004 290.303 32.0176C289.951 32.1465 289.652 32.2461 289.406 32.3164C289.172 32.3984 288.973 32.4512 288.809 32.4746C288.645 32.5098 288.463 32.5215 288.264 32.5098C287.982 32.5098 287.736 32.4395 287.525 32.2988C287.314 32.1699 287.139 32.0059 286.998 31.8066C286.857 31.5957 286.752 31.3672 286.682 31.1211C286.611 30.875 286.576 30.6348 286.576 30.4004C286.576 30.0254 286.629 29.6445 286.734 29.2578C286.84 28.8711 287.027 28.5195 287.297 28.2031C287.625 27.7812 287.9 27.3066 288.123 26.7793C288.357 26.252 288.545 25.6836 288.686 25.0742C288.826 24.4648 288.926 23.8262 288.984 23.1582C289.055 22.4902 289.09 21.8105 289.09 21.1191C289.09 20.3223 289.002 19.5137 288.826 18.6934C288.662 17.8613 288.375 17.1113 287.965 16.4434C287.566 15.7637 287.033 15.2129 286.365 14.791C285.709 14.3574 284.883 14.1406 283.887 14.1406C283.195 14.1406 282.516 14.252 281.848 14.4746C281.191 14.6855 280.559 14.9727 279.949 15.3359C279.352 15.6875 278.789 16.0918 278.262 16.5488C277.734 17.0059 277.271 17.4746 276.873 17.9551C276.861 18.4824 276.85 19.0156 276.838 19.5547C276.838 20.082 276.838 20.6152 276.838 21.1543C276.814 22.0684 276.797 22.9766 276.785 23.8789C276.773 24.7812 276.768 25.6953 276.768 26.6211C276.768 26.8906 276.768 27.166 276.768 27.4473C276.768 27.7168 276.779 28.0039 276.803 28.3086L277.277 28.168C277.406 28.1328 277.529 28.1035 277.646 28.0801C277.775 28.0449 277.887 28.0273 277.98 28.0273C278.613 28.0273 279.094 28.1855 279.422 28.502C279.75 28.8066 279.914 29.2578 279.914 29.8555C279.914 30.3008 279.826 30.6582 279.65 30.9277C279.475 31.1855 279.252 31.3906 278.982 31.543C278.713 31.6836 278.414 31.7832 278.086 31.8418C277.77 31.9004 277.459 31.9473 277.154 31.9824C276.99 32.0059 276.832 32.0234 276.68 32.0352C276.527 32.0586 276.398 32.0879 276.293 32.123C275.918 32.2285 275.596 32.3164 275.326 32.3867C275.057 32.4688 274.822 32.5098 274.623 32.5098C273.932 32.5098 273.457 32.3516 273.199 32.0352C272.953 31.7188 272.83 31.2734 272.83 30.6992ZM298.512 27.4473C298.512 27.1777 298.576 26.9316 298.705 26.709C298.834 26.4863 298.992 26.2988 299.18 26.1465C299.379 25.9824 299.596 25.8594 299.83 25.7773C300.064 25.6836 300.293 25.6367 300.516 25.6367C300.785 25.6367 301.014 25.666 301.201 25.7246C301.389 25.7832 301.553 25.8652 301.693 25.9707C301.834 26.0762 301.957 26.1992 302.062 26.3398C302.168 26.4805 302.279 26.6328 302.396 26.7969C302.865 27.5 303.551 28.0449 304.453 28.4316C305.355 28.8066 306.533 28.9941 307.986 28.9941C308.584 28.9941 309.146 28.9414 309.674 28.8359C310.213 28.7305 310.682 28.5723 311.08 28.3613C311.49 28.1504 311.812 27.8926 312.047 27.5879C312.293 27.2832 312.416 26.9316 312.416 26.5332C312.416 25.9941 312.258 25.5371 311.941 25.1621C311.637 24.7871 311.227 24.4648 310.711 24.1953C310.207 23.9258 309.633 23.6973 308.988 23.5098C308.344 23.3223 307.682 23.1406 307.002 22.9648C306.381 22.8125 305.754 22.6484 305.121 22.4727C304.488 22.2852 303.873 22.0742 303.275 21.8398C302.678 21.5938 302.115 21.3066 301.588 20.9785C301.072 20.6387 300.621 20.2402 300.234 19.7832C299.848 19.3262 299.537 18.7988 299.303 18.2012C299.08 17.5918 298.969 16.8945 298.969 16.1094C298.969 15.0547 299.215 14.1641 299.707 13.4375C300.211 12.6992 300.855 12.1016 301.641 11.6445C302.438 11.1875 303.322 10.8594 304.295 10.6602C305.268 10.4492 306.223 10.3438 307.16 10.3438C307.699 10.3438 308.191 10.373 308.637 10.4316C309.082 10.4902 309.498 10.5664 309.885 10.6602C310.271 10.7539 310.641 10.8711 310.992 11.0117C311.344 11.1406 311.695 11.2754 312.047 11.416C312.094 11.2402 312.164 11.0645 312.258 10.8887C312.363 10.7012 312.486 10.5371 312.627 10.3965C312.768 10.2441 312.932 10.1211 313.119 10.0273C313.307 9.93359 313.518 9.88672 313.752 9.88672C314.326 9.88672 314.771 9.99805 315.088 10.2207C315.404 10.4434 315.562 10.8359 315.562 11.3984C315.562 11.8437 315.545 12.3066 315.51 12.7871C315.475 13.2676 315.457 13.7949 315.457 14.3691C315.516 14.5098 315.557 14.668 315.58 14.8438C315.604 15.0078 315.615 15.1543 315.615 15.2832C315.615 15.5645 315.568 15.8047 315.475 16.0039C315.381 16.1914 315.252 16.3496 315.088 16.4785C314.924 16.5957 314.73 16.6836 314.508 16.7422C314.297 16.8008 314.062 16.8301 313.805 16.8301C313.57 16.8301 313.342 16.7891 313.119 16.707C312.908 16.625 312.715 16.5195 312.539 16.3906C312.363 16.25 312.211 16.0918 312.082 15.916C311.953 15.7402 311.854 15.5586 311.783 15.3711C311.596 15.2188 311.355 15.0488 311.062 14.8613C310.781 14.6621 310.441 14.4805 310.043 14.3164C309.656 14.1523 309.211 14.0176 308.707 13.9121C308.203 13.7949 307.646 13.7363 307.037 13.7363C306.439 13.7363 305.883 13.7949 305.367 13.9121C304.863 14.0176 304.424 14.1758 304.049 14.3867C303.686 14.5977 303.398 14.8496 303.188 15.1426C302.977 15.4355 302.871 15.7637 302.871 16.127C302.871 16.5957 303.012 17 303.293 17.3398C303.586 17.668 303.973 17.9609 304.453 18.2188C304.934 18.4648 305.49 18.6875 306.123 18.8867C306.768 19.0859 307.436 19.2793 308.127 19.4668C309.076 19.7246 310.031 20.0117 310.992 20.3281C311.965 20.6445 312.838 21.0547 313.611 21.5586C314.396 22.0508 315.035 22.6777 315.527 23.4395C316.02 24.1895 316.266 25.1328 316.266 26.2695C316.266 27.1484 316.131 27.9102 315.861 28.5547C315.592 29.1992 315.234 29.7559 314.789 30.2246C314.344 30.6816 313.822 31.0625 313.225 31.3672C312.639 31.6602 312.023 31.8887 311.379 32.0527C310.746 32.2285 310.102 32.3457 309.445 32.4043C308.789 32.4746 308.168 32.5098 307.582 32.5098C306.762 32.5098 305.971 32.4336 305.209 32.2812C304.447 32.1289 303.727 31.9238 303.047 31.666C302.379 31.4082 301.764 31.1094 301.201 30.7695C300.65 30.4297 300.176 30.0723 299.777 29.6973C299.379 29.3223 299.068 28.9414 298.846 28.5547C298.623 28.168 298.512 27.7988 298.512 27.4473ZM326.812 7.77734C326.531 7.90625 326.238 7.9707 325.934 7.9707C325.629 7.95898 325.348 7.89453 325.09 7.77734C324.844 7.64844 324.627 7.4668 324.439 7.23242C324.252 6.99805 324.135 6.7168 324.088 6.38867C324.053 6.16602 324.059 5.91406 324.105 5.63281C324.164 5.33984 324.234 5.04688 324.316 4.75391C324.41 4.44922 324.492 4.15625 324.562 3.875C324.645 3.58203 324.697 3.31836 324.721 3.08398C324.756 2.55664 324.914 2.11719 325.195 1.76562C325.477 1.41406 325.898 1.19727 326.461 1.11523C326.871 1.04492 327.258 1.06836 327.621 1.18555C327.984 1.30273 328.254 1.56055 328.43 1.95898C328.488 2.08789 328.535 2.24023 328.57 2.41602C328.617 2.58008 328.652 2.72656 328.676 2.85547C328.688 2.97266 328.682 3.11914 328.658 3.29492C328.646 3.4707 328.617 3.6582 328.57 3.85742C328.523 4.04492 328.465 4.23828 328.395 4.4375C328.336 4.625 328.277 4.78906 328.219 4.92969C328.125 5.12891 328.061 5.3457 328.025 5.58008C328.002 5.80273 327.973 6.00781 327.938 6.19531C327.902 6.38281 327.867 6.55273 327.832 6.70508C327.797 6.85742 327.738 6.99805 327.656 7.12695C327.586 7.25586 327.48 7.37305 327.34 7.47852C327.211 7.58398 327.035 7.68359 326.812 7.77734ZM323.807 30.6816C323.807 30.3887 323.818 30.1426 323.842 29.9434C323.877 29.7441 323.906 29.5273 323.93 29.293C323.965 29.0469 323.994 28.7598 324.018 28.4316C324.053 28.1035 324.07 27.6582 324.07 27.0957C324.07 24.998 324.064 22.918 324.053 20.8555C324.041 18.7812 324.012 16.5898 323.965 14.2812C323.789 14.293 323.59 14.3047 323.367 14.3164C323.145 14.3281 322.91 14.3398 322.664 14.3516C322.43 14.3516 322.201 14.3574 321.979 14.3691C321.756 14.3691 321.557 14.3691 321.381 14.3691C321.17 14.3691 320.953 14.3398 320.73 14.2812C320.52 14.2109 320.326 14.0996 320.15 13.9473C319.975 13.7949 319.828 13.6016 319.711 13.3672C319.594 13.1211 319.535 12.8223 319.535 12.4707C319.535 11.8496 319.699 11.3809 320.027 11.0645C320.367 10.7363 320.766 10.5723 321.223 10.5723C321.668 10.5723 322.107 10.5957 322.541 10.6426C322.986 10.6777 323.42 10.6953 323.842 10.6953C324.275 10.6953 324.709 10.6777 325.143 10.6426C325.576 10.5957 325.986 10.5723 326.373 10.5723C326.971 10.5723 327.398 10.7305 327.656 11.0469C327.914 11.3633 328.043 11.8027 328.043 12.3652C328.043 12.8457 328.002 13.3203 327.92 13.7891C327.838 14.2461 327.797 14.7383 327.797 15.2656C327.797 16.3203 327.791 17.3809 327.779 18.4473C327.768 19.5137 327.756 20.5977 327.744 21.6992C327.744 22.8008 327.738 23.9258 327.727 25.0742C327.727 26.2227 327.738 27.4062 327.762 28.625C327.949 28.6133 328.119 28.584 328.271 28.5371C328.424 28.4902 328.57 28.4434 328.711 28.3965C328.852 28.3379 328.998 28.291 329.15 28.2559C329.314 28.209 329.496 28.1855 329.695 28.1855C330 28.1855 330.246 28.2207 330.434 28.291C330.633 28.3613 330.791 28.4609 330.908 28.5898C331.025 28.707 331.113 28.8594 331.172 29.0469C331.23 29.2227 331.283 29.416 331.33 29.627C331.412 30.1777 331.277 30.6172 330.926 30.9453C330.574 31.2734 330.094 31.5312 329.484 31.7188C329.133 31.8125 328.77 31.9062 328.395 32C328.031 32.0938 327.686 32.1758 327.357 32.2461C327.029 32.3281 326.73 32.3926 326.461 32.4395C326.191 32.4863 325.98 32.5098 325.828 32.5098C325.137 32.5098 324.627 32.3457 324.299 32.0176C323.971 31.7012 323.807 31.2559 323.807 30.6816ZM334.916 21.4004C334.916 19.877 335.197 18.4473 335.76 17.1113C336.334 15.7637 337.113 14.5918 338.098 13.5957C339.094 12.5879 340.254 11.7969 341.578 11.2227C342.902 10.6367 344.32 10.3438 345.832 10.3438C347.484 10.3438 348.979 10.6367 350.314 11.2227C351.662 11.7969 352.811 12.5879 353.76 13.5957C354.721 14.5918 355.459 15.7637 355.975 17.1113C356.49 18.4473 356.748 19.877 356.748 21.4004C356.748 22.5137 356.613 23.5625 356.344 24.5469C356.086 25.5312 355.717 26.4336 355.236 27.2539C354.756 28.0742 354.176 28.8125 353.496 29.4688C352.828 30.1133 352.09 30.6641 351.281 31.1211C350.473 31.5664 349.605 31.9062 348.68 32.1406C347.766 32.3867 346.816 32.5098 345.832 32.5098C344.355 32.5098 342.955 32.2461 341.631 31.7188C340.307 31.1797 339.146 30.4297 338.15 29.4688C337.154 28.4961 336.363 27.3301 335.777 25.9707C335.203 24.5996 334.916 23.0762 334.916 21.4004ZM338.977 21.4004C338.977 22.5137 339.135 23.5215 339.451 24.4238C339.768 25.3262 340.219 26.0996 340.805 26.7441C341.402 27.377 342.123 27.8691 342.967 28.2207C343.811 28.5605 344.76 28.7305 345.814 28.7305C346.752 28.7305 347.637 28.5723 348.469 28.2559C349.301 27.9395 350.027 27.4766 350.648 26.8672C351.281 26.2461 351.779 25.4785 352.143 24.5645C352.518 23.6504 352.705 22.5957 352.705 21.4004C352.705 20.416 352.547 19.4844 352.23 18.6055C351.926 17.7148 351.48 16.9414 350.895 16.2852C350.309 15.6289 349.588 15.1074 348.732 14.7207C347.877 14.334 346.904 14.1406 345.814 14.1406C344.725 14.1406 343.758 14.334 342.914 14.7207C342.07 15.1074 341.355 15.6289 340.77 16.2852C340.184 16.9414 339.738 17.7148 339.434 18.6055C339.129 19.4844 338.977 20.416 338.977 21.4004ZM363.639 30.6992C363.639 30.4883 363.645 30.2715 363.656 30.0488C363.68 29.8262 363.703 29.6094 363.727 29.3984C363.762 29.082 363.797 28.7363 363.832 28.3613C363.867 27.9863 363.885 27.5645 363.885 27.0957C363.885 26.1816 363.879 25.3203 363.867 24.5117C363.867 23.6914 363.855 22.8477 363.832 21.9805C363.832 21.957 363.832 21.9219 363.832 21.875C363.832 21.8164 363.826 21.7051 363.814 21.541C363.814 21.377 363.809 21.1367 363.797 20.8203C363.797 20.5039 363.791 20.0586 363.779 19.4844C363.768 18.9102 363.75 18.1953 363.727 17.3398C363.715 16.4727 363.697 15.418 363.674 14.1758C363.521 14.1992 363.34 14.2227 363.129 14.2461C362.93 14.2578 362.689 14.2637 362.408 14.2637C362.197 14.2637 361.98 14.2285 361.758 14.1582C361.547 14.0879 361.348 13.9824 361.16 13.8418C360.984 13.6895 360.838 13.4961 360.721 13.2617C360.615 13.0156 360.562 12.7168 360.562 12.3652C360.562 11.7324 360.721 11.2578 361.037 10.9414C361.365 10.6133 361.764 10.4492 362.232 10.4492C362.42 10.4492 362.602 10.4727 362.777 10.5195C362.953 10.5664 363.141 10.5898 363.34 10.5898C363.574 10.5898 363.814 10.584 364.061 10.5723C364.307 10.5605 364.547 10.543 364.781 10.5195C365.039 10.4961 365.291 10.4785 365.537 10.4668C365.795 10.4551 366.023 10.4492 366.223 10.4492C366.703 10.4492 367.102 10.6074 367.418 10.9238C367.734 11.2402 367.893 11.6855 367.893 12.2598C367.893 12.4004 367.887 12.5645 367.875 12.752C367.875 12.9395 367.863 13.1211 367.84 13.2969C368.238 12.9102 368.689 12.541 369.193 12.1895C369.697 11.8379 370.242 11.5273 370.828 11.2578C371.426 10.9766 372.064 10.7539 372.744 10.5898C373.424 10.4258 374.145 10.3438 374.906 10.3438C376.395 10.3438 377.695 10.5898 378.809 11.082C379.934 11.5625 380.871 12.2656 381.621 13.1914C382.383 14.1055 382.951 15.2305 383.326 16.5664C383.713 17.9023 383.906 19.4199 383.906 21.1191C383.906 21.6348 383.871 22.1738 383.801 22.7363C383.73 23.2988 383.631 23.8613 383.502 24.4238C383.385 24.9863 383.238 25.5488 383.062 26.1113C382.898 26.6621 382.711 27.1836 382.5 27.6758C382.77 27.5938 383.027 27.5234 383.273 27.4648C383.52 27.4062 383.725 27.3652 383.889 27.3418C385.201 27.2129 385.857 27.8105 385.857 29.1348C385.857 29.2988 385.84 29.4805 385.805 29.6797C385.77 29.8672 385.699 30.0547 385.594 30.2422C385.488 30.418 385.342 30.5879 385.154 30.752C384.967 30.9043 384.727 31.0332 384.434 31.1387L382.535 31.5781C381.949 31.7539 381.475 31.9004 381.111 32.0176C380.76 32.1465 380.461 32.2461 380.215 32.3164C379.98 32.3984 379.781 32.4512 379.617 32.4746C379.453 32.5098 379.271 32.5215 379.072 32.5098C378.791 32.5098 378.545 32.4395 378.334 32.2988C378.123 32.1699 377.947 32.0059 377.807 31.8066C377.666 31.5957 377.561 31.3672 377.49 31.1211C377.42 30.875 377.385 30.6348 377.385 30.4004C377.385 30.0254 377.438 29.6445 377.543 29.2578C377.648 28.8711 377.836 28.5195 378.105 28.2031C378.434 27.7812 378.709 27.3066 378.932 26.7793C379.166 26.252 379.354 25.6836 379.494 25.0742C379.635 24.4648 379.734 23.8262 379.793 23.1582C379.863 22.4902 379.898 21.8105 379.898 21.1191C379.898 20.3223 379.811 19.5137 379.635 18.6934C379.471 17.8613 379.184 17.1113 378.773 16.4434C378.375 15.7637 377.842 15.2129 377.174 14.791C376.518 14.3574 375.691 14.1406 374.695 14.1406C374.004 14.1406 373.324 14.252 372.656 14.4746C372 14.6855 371.367 14.9727 370.758 15.3359C370.16 15.6875 369.598 16.0918 369.07 16.5488C368.543 17.0059 368.08 17.4746 367.682 17.9551C367.67 18.4824 367.658 19.0156 367.646 19.5547C367.646 20.082 367.646 20.6152 367.646 21.1543C367.623 22.0684 367.605 22.9766 367.594 23.8789C367.582 24.7812 367.576 25.6953 367.576 26.6211C367.576 26.8906 367.576 27.166 367.576 27.4473C367.576 27.7168 367.588 28.0039 367.611 28.3086L368.086 28.168C368.215 28.1328 368.338 28.1035 368.455 28.0801C368.584 28.0449 368.695 28.0273 368.789 28.0273C369.422 28.0273 369.902 28.1855 370.23 28.502C370.559 28.8066 370.723 29.2578 370.723 29.8555C370.723 30.3008 370.635 30.6582 370.459 30.9277C370.283 31.1855 370.061 31.3906 369.791 31.543C369.521 31.6836 369.223 31.7832 368.895 31.8418C368.578 31.9004 368.268 31.9473 367.963 31.9824C367.799 32.0059 367.641 32.0234 367.488 32.0352C367.336 32.0586 367.207 32.0879 367.102 32.123C366.727 32.2285 366.404 32.3164 366.135 32.3867C365.865 32.4688 365.631 32.5098 365.432 32.5098C364.74 32.5098 364.266 32.3516 364.008 32.0352C363.762 31.7188 363.639 31.2734 363.639 30.6992ZM389.18 21.4531C389.18 19.8594 389.449 18.377 389.988 17.0059C390.527 15.6348 391.266 14.4453 392.203 13.4375C393.152 12.4297 394.26 11.6387 395.525 11.0645C396.803 10.4902 398.18 10.2031 399.656 10.2031C400.406 10.2031 401.121 10.291 401.801 10.4668C402.492 10.6426 403.131 10.877 403.717 11.1699C404.314 11.4512 404.848 11.7734 405.316 12.1367C405.797 12.5 406.207 12.875 406.547 13.2617C406.535 13.0977 406.529 12.9219 406.529 12.7344C406.529 12.5469 406.529 12.3828 406.529 12.2422C406.529 11.9492 406.57 11.6797 406.652 11.4336C406.734 11.1758 406.863 10.9531 407.039 10.7656C407.215 10.5781 407.438 10.4316 407.707 10.3262C407.977 10.209 408.305 10.1504 408.691 10.1504C409.02 10.1504 409.312 10.2148 409.57 10.3438C409.84 10.4609 410.068 10.6133 410.256 10.8008C410.443 10.9766 410.59 11.1699 410.695 11.3809C410.801 11.5801 410.854 11.7617 410.854 11.9258C410.854 12.3242 410.83 12.7285 410.783 13.1387C410.748 13.5371 410.719 13.9414 410.695 14.3516C410.695 15.6406 410.684 16.7832 410.66 17.7793C410.648 18.7637 410.631 19.6719 410.607 20.5039C410.584 21.0664 410.566 21.6523 410.555 22.2617C410.543 22.8594 410.537 23.4102 410.537 23.9141C410.537 25.0508 410.537 25.9531 410.537 26.6211C410.537 27.2891 410.566 27.7754 410.625 28.0801C410.73 28.0566 410.883 28.0039 411.082 27.9219C411.293 27.8398 411.486 27.752 411.662 27.6582C411.826 27.5996 411.99 27.541 412.154 27.4824C412.318 27.4238 412.523 27.3945 412.77 27.3945C413.051 27.3945 413.297 27.459 413.508 27.5879C413.719 27.7051 413.895 27.8633 414.035 28.0625C414.188 28.25 414.299 28.4668 414.369 28.7129C414.439 28.9473 414.475 29.1758 414.475 29.3984C414.475 29.7148 414.398 30.0371 414.246 30.3652C414.094 30.6816 413.812 30.9102 413.402 31.0508C413.051 31.1797 412.693 31.3145 412.33 31.4551C411.967 31.5957 411.598 31.7246 411.223 31.8418C410.859 31.959 410.49 32.0586 410.115 32.1406C409.752 32.2227 409.377 32.2637 408.99 32.2637C408.533 32.2637 408.158 32.1699 407.865 31.9824C407.572 31.7949 407.344 31.5547 407.18 31.2617C407.016 30.957 406.898 30.623 406.828 30.2598C406.758 29.8965 406.717 29.5391 406.705 29.1875C406.342 29.6445 405.902 30.0723 405.387 30.4707C404.871 30.8691 404.303 31.2207 403.682 31.5254C403.061 31.8301 402.393 32.0703 401.678 32.2461C400.975 32.4219 400.248 32.5098 399.498 32.5098C397.975 32.5098 396.58 32.2344 395.314 31.6836C394.049 31.1211 392.959 30.3477 392.045 29.3633C391.143 28.3672 390.439 27.1953 389.936 25.8477C389.432 24.5 389.18 23.0352 389.18 21.4531ZM393.223 21.4531C393.223 22.4023 393.363 23.3164 393.645 24.1953C393.938 25.0742 394.354 25.8535 394.893 26.5332C395.443 27.2012 396.117 27.7344 396.914 28.1328C397.711 28.5312 398.613 28.7305 399.621 28.7305C400.617 28.7305 401.52 28.5371 402.328 28.1504C403.137 27.7637 403.84 27.2598 404.438 26.6387C405.047 26.0176 405.545 25.3262 405.932 24.5645C406.318 23.791 406.582 23.0176 406.723 22.2441V20.6973C406.594 19.9824 406.348 19.2266 405.984 18.4297C405.633 17.6328 405.164 16.9004 404.578 16.2324C404.004 15.5527 403.312 14.9961 402.504 14.5625C401.695 14.1172 400.781 13.8945 399.762 13.8945C398.801 13.8945 397.922 14.0938 397.125 14.4922C396.328 14.8789 395.637 15.418 395.051 16.1094C394.477 16.7891 394.025 17.5859 393.697 18.5C393.381 19.4141 393.223 20.3984 393.223 21.4531ZM419.66 30.1895C419.66 29.4629 419.678 28.6953 419.713 27.8867C419.736 27.4648 419.754 26.9902 419.766 26.4629C419.777 25.9238 419.783 25.3906 419.783 24.8633C419.783 24.5117 419.777 23.9551 419.766 23.1934C419.766 22.4199 419.76 21.5059 419.748 20.4512C419.748 19.3965 419.736 18.2246 419.713 16.9355C419.701 15.6465 419.684 14.3047 419.66 12.9102C419.648 11.5039 419.631 10.0742 419.607 8.62109C419.596 7.16797 419.578 5.74414 419.555 4.34961C419.098 4.36133 418.635 4.39062 418.166 4.4375C417.697 4.47266 417.217 4.49023 416.725 4.49023C416.514 4.49023 416.297 4.45508 416.074 4.38477C415.863 4.31445 415.67 4.20898 415.494 4.06836C415.318 3.91602 415.172 3.7168 415.055 3.4707C414.938 3.22461 414.879 2.92578 414.879 2.57422C414.879 1.95313 415.043 1.48438 415.371 1.16797C415.711 0.839844 416.104 0.675781 416.549 0.675781C416.959 0.675781 417.363 0.699219 417.762 0.746094C418.16 0.792969 418.582 0.816406 419.027 0.816406C419.355 0.816406 419.643 0.810547 419.889 0.798828C420.135 0.787109 420.369 0.775391 420.592 0.763672C420.826 0.740234 421.072 0.722656 421.33 0.710938C421.588 0.6875 421.898 0.675781 422.262 0.675781C422.754 0.675781 423.152 0.833984 423.457 1.15039C423.773 1.45508 423.932 1.92969 423.932 2.57422C423.932 2.80859 423.908 3.03711 423.861 3.25977C423.826 3.48242 423.779 3.70508 423.721 3.92773C423.674 4.15039 423.627 4.37891 423.58 4.61328C423.545 4.83594 423.521 5.06445 423.51 5.29883V28.3438C423.99 28.2031 424.371 28.0977 424.652 28.0273C424.945 27.957 425.197 27.9219 425.408 27.9219C426.639 27.9219 427.254 28.5664 427.254 29.8555C427.254 30.3828 427.072 30.793 426.709 31.0859C426.357 31.3672 425.848 31.5898 425.18 31.7539L423.422 32.2109C423.023 32.3398 422.713 32.4219 422.49 32.457C422.268 32.4922 422.027 32.5098 421.77 32.5098C421.395 32.5098 421.072 32.4395 420.803 32.2988C420.545 32.1582 420.328 31.9766 420.152 31.7539C419.988 31.5195 419.865 31.2676 419.783 30.998C419.701 30.7285 419.66 30.459 419.66 30.1895Z" fill="#CDE7BE"/>
</svg>
